name rise31.4854peak64.571fall78.6902.mot
datacolumns 19
datarows 24
range 16.83327500000000 16.87160200000000
endheader
time	ground_force1_vx	ground_force1_vy	ground_force1_vz	ground_force1_px	ground_force1_py	ground_force1_pz	ground_force2_vx	ground_force2_vy	ground_force2_vz	ground_force2_px	ground_force2_py	ground_force2_pz	ground_torque1_x	ground_torque1_y	ground_torque1_z	ground_torque2_x	ground_torque2_y	ground_torque2_z	
16.83327500000000	73.79349400000000	781.44467299999997	60.16813300000000	0.33790600000000	0.00000000000000	0.11006200000000	0.00000000000000	0.00000000000000	0.00000000000000	0.00000000000000	0.00000000000000	0.00000000000000	0.00000000000000	23.55570900000000	0.00000000000000	0.00000000000000	0.00000000000000	0.00000000000000	
16.83493800000000	72.98582800000000	783.30083700000000	60.11074600000000	0.33689900000000	0.00000000000000	0.11003100000000	0.00000000000000	0.00000000000000	0.00000000000000	0.00000000000000	0.00000000000000	0.00000000000000	0.00000000000000	23.54587900000000	0.00000000000000	0.00000000000000	0.00000000000000	0.00000000000000	
16.83660200000000	72.17395300000000	785.02679400000000	60.05358300000000	0.33593000000000	0.00000000000000	0.11000000000000	0.00000000000000	0.00000000000000	0.00000000000000	0.00000000000000	0.00000000000000	0.00000000000000	0.00000000000000	23.54002600000000	0.00000000000000	0.00000000000000	0.00000000000000	0.00000000000000	
16.83826800000000	71.35847600000000	786.62044100000003	59.99685500000000	0.33499600000000	0.00000000000000	0.10997000000000	0.00000000000000	0.00000000000000	0.00000000000000	0.00000000000000	0.00000000000000	0.00000000000000	0.00000000000000	23.53818200000000	0.00000000000000	0.00000000000000	0.00000000000000	0.00000000000000	
16.83994200000000	70.53995100000000	788.07987200000002	59.94068300000000	0.33409700000000	0.00000000000000	0.10994000000000	0.00000000000000	0.00000000000000	0.00000000000000	0.00000000000000	0.00000000000000	0.00000000000000	0.00000000000000	23.54031700000000	0.00000000000000	0.00000000000000	0.00000000000000	0.00000000000000	
16.84160400000000	69.71888100000000	789.40339400000005	59.88510000000000	0.33323100000000	0.00000000000000	0.10991000000000	0.00000000000000	0.00000000000000	0.00000000000000	0.00000000000000	0.00000000000000	0.00000000000000	0.00000000000000	23.54633900000000	0.00000000000000	0.00000000000000	0.00000000000000	0.00000000000000	
16.84327100000000	68.89572200000001	790.58954100000005	59.83006000000000	0.33239700000000	0.00000000000000	0.10988000000000	0.00000000000000	0.00000000000000	0.00000000000000	0.00000000000000	0.00000000000000	0.00000000000000	0.00000000000000	23.55609400000000	0.00000000000000	0.00000000000000	0.00000000000000	0.00000000000000	
16.84493700000000	68.07088899999999	791.63709200000005	59.77544100000000	0.33159300000000	0.00000000000000	0.10985200000000	0.00000000000000	0.00000000000000	0.00000000000000	0.00000000000000	0.00000000000000	0.00000000000000	0.00000000000000	23.56937600000000	0.00000000000000	0.00000000000000	0.00000000000000	0.00000000000000	
16.84660700000000	67.24475500000000	792.54507999999998	59.72104900000000	0.33081600000000	0.00000000000000	0.10982300000000	0.00000000000000	0.00000000000000	0.00000000000000	0.00000000000000	0.00000000000000	0.00000000000000	0.00000000000000	23.58592600000000	0.00000000000000	0.00000000000000	0.00000000000000	0.00000000000000	
16.84826900000000	66.41765900000000	793.31280300000003	59.66662700000000	0.33006600000000	0.00000000000000	0.10979500000000	0.00000000000000	0.00000000000000	0.00000000000000	0.00000000000000	0.00000000000000	0.00000000000000	0.00000000000000	23.60543900000000	0.00000000000000	0.00000000000000	0.00000000000000	0.00000000000000	
16.84993400000000	65.58990799999999	793.93983800000001	59.61185800000000	0.32934000000000	0.00000000000000	0.10976800000000	0.00000000000000	0.00000000000000	0.00000000000000	0.00000000000000	0.00000000000000	0.00000000000000	0.00000000000000	23.62756500000000	0.00000000000000	0.00000000000000	0.00000000000000	0.00000000000000	
16.85160800000000	64.76177900000000	794.42604300000005	59.55637500000000	0.32863500000000	0.00000000000000	0.10974200000000	0.00000000000000	0.00000000000000	0.00000000000000	0.00000000000000	0.00000000000000	0.00000000000000	0.00000000000000	23.65191800000000	0.00000000000000	0.00000000000000	0.00000000000000	0.00000000000000	
16.85326900000000	63.93352500000000	794.77156700000000	59.49976200000000	0.32794900000000	0.00000000000000	0.10971700000000	0.00000000000000	0.00000000000000	0.00000000000000	0.00000000000000	0.00000000000000	0.00000000000000	0.00000000000000	23.67807600000000	0.00000000000000	0.00000000000000	0.00000000000000	0.00000000000000	
16.85494100000000	63.10537900000000	794.97685600000000	59.44156900000000	0.32728100000000	0.00000000000000	0.10969200000000	0.00000000000000	0.00000000000000	0.00000000000000	0.00000000000000	0.00000000000000	0.00000000000000	0.00000000000000	23.70558700000000	0.00000000000000	0.00000000000000	0.00000000000000	0.00000000000000	
16.85660500000000	62.27755600000000	795.04265199999998	59.38130800000000	0.32662600000000	0.00000000000000	0.10966900000000	0.00000000000000	0.00000000000000	0.00000000000000	0.00000000000000	0.00000000000000	0.00000000000000	0.00000000000000	23.73397400000000	0.00000000000000	0.00000000000000	0.00000000000000	0.00000000000000	
16.85826700000000	61.45026000000000	794.96999800000003	59.31846900000000	0.32598400000000	0.00000000000000	0.10964600000000	0.00000000000000	0.00000000000000	0.00000000000000	0.00000000000000	0.00000000000000	0.00000000000000	0.00000000000000	23.76273900000000	0.00000000000000	0.00000000000000	0.00000000000000	0.00000000000000	
16.85993600000000	60.62368100000000	794.76023699999996	59.25252300000000	0.32535100000000	0.00000000000000	0.10962400000000	0.00000000000000	0.00000000000000	0.00000000000000	0.00000000000000	0.00000000000000	0.00000000000000	0.00000000000000	23.79136700000000	0.00000000000000	0.00000000000000	0.00000000000000	0.00000000000000	
16.86160800000000	59.79800600000000	794.41501000000005	59.18292500000000	0.32472500000000	0.00000000000000	0.10960400000000	0.00000000000000	0.00000000000000	0.00000000000000	0.00000000000000	0.00000000000000	0.00000000000000	0.00000000000000	23.81933500000000	0.00000000000000	0.00000000000000	0.00000000000000	0.00000000000000	
16.86326800000000	58.97341800000000	793.93625299999997	59.10912600000000	0.32410200000000	0.00000000000000	0.10958500000000	0.00000000000000	0.00000000000000	0.00000000000000	0.00000000000000	0.00000000000000	0.00000000000000	0.00000000000000	23.84610600000000	0.00000000000000	0.00000000000000	0.00000000000000	0.00000000000000	
16.86494000000000	58.15009900000000	793.32619499999998	59.03057600000000	0.32348100000000	0.00000000000000	0.10956700000000	0.00000000000000	0.00000000000000	0.00000000000000	0.00000000000000	0.00000000000000	0.00000000000000	0.00000000000000	23.87114600000000	0.00000000000000	0.00000000000000	0.00000000000000	0.00000000000000	
16.86660800000000	57.32823400000000	792.58734900000002	58.94673100000000	0.32285900000000	0.00000000000000	0.10955000000000	0.00000000000000	0.00000000000000	0.00000000000000	0.00000000000000	0.00000000000000	0.00000000000000	0.00000000000000	23.89392000000000	0.00000000000000	0.00000000000000	0.00000000000000	0.00000000000000	
16.86827400000000	56.50801500000000	791.72250599999995	58.85705600000000	0.32223300000000	0.00000000000000	0.10953400000000	0.00000000000000	0.00000000000000	0.00000000000000	0.00000000000000	0.00000000000000	0.00000000000000	0.00000000000000	23.91389600000000	0.00000000000000	0.00000000000000	0.00000000000000	0.00000000000000	
16.86993700000000	55.68964000000000	790.73472700000002	58.76103500000000	0.32160100000000	0.00000000000000	0.10952000000000	0.00000000000000	0.00000000000000	0.00000000000000	0.00000000000000	0.00000000000000	0.00000000000000	0.00000000000000	23.93055400000000	0.00000000000000	0.00000000000000	0.00000000000000	0.00000000000000	
16.87160200000000	54.87331800000000	789.62733400000002	58.65817000000000	0.32095900000000	0.00000000000000	0.10950700000000	0.00000000000000	0.00000000000000	0.00000000000000	0.00000000000000	0.00000000000000	0.00000000000000	0.00000000000000	23.94338500000000	0.00000000000000	0.00000000000000	0.00000000000000	0.00000000000000	
